<svg width="144" height="144" viewBox="0 0 144 144" fill="none" xmlns="http://www.w3.org/2000/svg">
<path d="M75.8861 33.4294C75.4026 33.3826 74.9929 33.2802 74.6571 33.1221C74.3211 32.9669 74.0468 32.7776 73.8344 32.5544C73.6245 32.3343 73.4626 32.1046 73.3488 31.8653L74.2004 31.3825C74.2794 31.51 74.3807 31.6569 74.5045 31.823C74.628 31.9919 74.8045 32.1445 75.0339 32.2809C75.2659 32.4203 75.5784 32.5091 75.9715 32.5471C76.4974 32.598 76.9438 32.5127 77.3105 32.2913C77.6773 32.0699 77.887 31.6878 77.9395 31.1449L78.0675 29.8215L77.9827 29.8133C77.8977 29.9249 77.7788 30.0619 77.6261 30.2241C77.4765 30.3837 77.2693 30.5192 77.0045 30.6306C76.7428 30.7394 76.3999 30.7733 75.9758 30.7323C75.4498 30.6814 74.9896 30.5113 74.5952 30.222C74.2036 29.9329 73.9092 29.5391 73.712 29.0405C73.5176 28.5422 73.4532 27.9537 73.5188 27.2751C73.5834 26.6078 73.757 26.038 74.0395 25.5659C74.3224 25.0909 74.6862 24.7379 75.1309 24.5069C75.576 24.2731 76.0728 24.1828 76.6214 24.2358C77.0455 24.2769 77.3752 24.3801 77.6103 24.5456C77.8486 24.7085 78.0256 24.8854 78.1412 25.0764C78.26 25.2649 78.3507 25.4192 78.4132 25.5394L78.515 25.5493L78.6152 24.5144L79.5822 24.6079L78.9339 31.3096C78.8798 31.8695 78.7085 32.3124 78.4201 32.6384C78.1342 32.9675 77.7698 33.1935 77.327 33.3162C76.8867 33.442 76.4064 33.4797 75.8861 33.4294ZM76.1985 29.8462C76.6 29.885 76.9482 29.826 77.2431 29.669C77.538 29.512 77.7743 29.268 77.9519 28.9369C78.1294 28.6059 78.2415 28.2 78.288 27.7193C78.3334 27.2499 78.3028 26.8288 78.1961 26.456C78.0895 26.0832 77.9075 25.7816 77.65 25.5512C77.3926 25.3208 77.0603 25.1859 76.6531 25.1465C76.229 25.1055 75.8651 25.1788 75.5616 25.3663C75.2608 25.5541 75.0223 25.8222 74.8459 26.1705C74.6723 26.519 74.5642 26.9138 74.5215 27.355C74.4777 27.8074 74.5097 28.2144 74.6174 28.5758C74.7283 28.9348 74.9141 29.2267 75.1749 29.4518C75.4388 29.6742 75.78 29.8057 76.1985 29.8462Z" fill="white"/>
<path d="M83.3842 32.2902C82.7755 32.1251 82.2868 31.8483 81.9183 31.4599C81.5532 31.0695 81.3172 30.5993 81.2103 30.0492C81.1068 29.4972 81.1429 28.8977 81.3184 28.2506C81.4939 27.6035 81.7664 27.0652 82.1361 26.6356C82.5092 26.2041 82.9458 25.9074 83.4459 25.7458C83.9495 25.5821 84.4865 25.5776 85.0568 25.7323C85.3858 25.8215 85.6958 25.9645 85.9869 26.1612C86.2779 26.3578 86.5216 26.6152 86.7179 26.9334C86.9149 27.2488 87.0369 27.6292 87.0839 28.0747C87.1309 28.5201 87.0744 29.0376 86.9145 29.6271L86.803 30.0384L81.9335 28.7177L82.161 27.8787L86.0435 28.9317C86.1402 28.5752 86.1551 28.2378 86.0884 27.9195C86.0244 27.6019 85.8841 27.3269 85.6675 27.0945C85.4537 26.8628 85.1713 26.6994 84.8203 26.6042C84.4337 26.4993 84.0732 26.5046 83.7387 26.6199C83.4077 26.7333 83.1256 26.9217 82.8922 27.1851C82.6589 27.4485 82.495 27.7544 82.4005 28.1026L82.2488 28.6619C82.1194 29.139 82.092 29.5657 82.1665 29.9421C82.2446 30.3165 82.4082 30.6302 82.6575 30.8833C82.9075 31.1336 83.2285 31.3119 83.6206 31.4182C83.8756 31.4874 84.1156 31.5142 84.3406 31.4987C84.569 31.4812 84.7784 31.4202 84.9686 31.3158C85.1595 31.2086 85.3259 31.0565 85.4676 30.8595L86.334 31.377C86.149 31.6683 85.9073 31.903 85.6088 32.0811C85.311 32.2564 84.9726 32.3648 84.5934 32.4062C84.215 32.4448 83.8119 32.4062 83.3842 32.2902Z" fill="white"/>
<path d="M92.1128 28.3572L91.7805 29.1421L88.6569 27.8195L88.9892 27.0347L92.1128 28.3572ZM90.511 25.9761L91.4371 26.3682L89.0047 32.1131C88.8939 32.3747 88.8488 32.587 88.8693 32.7499C88.8935 32.9113 88.9563 33.0397 89.0578 33.1352C89.1631 33.2291 89.2837 33.3048 89.4197 33.3624C89.5218 33.4056 89.6077 33.4358 89.6775 33.4531C89.7485 33.4677 89.8052 33.4794 89.8478 33.4881L89.6839 34.3998C89.6111 34.3968 89.5135 34.3832 89.3911 34.3591C89.2675 34.3376 89.1194 34.2904 88.9467 34.2172C88.6851 34.1065 88.4526 33.9417 88.249 33.7229C88.0482 33.5051 87.914 33.2463 87.8467 32.9463C87.782 32.6474 87.8238 32.3227 87.9723 31.9721L90.511 25.9761Z" fill="white"/>
<path d="M94.8501 37.5256C94.5079 37.2913 94.2414 37.0142 94.0507 36.6943C93.8615 36.3721 93.7692 36.0317 93.7736 35.6733C93.7796 35.3124 93.9029 34.9562 94.1436 34.6046C94.3554 34.2951 94.5881 34.086 94.8416 33.9772C95.0967 33.8661 95.3639 33.8252 95.6433 33.8546C95.9227 33.8841 96.2039 33.9561 96.4869 34.0706C96.7739 34.1845 97.0541 34.3108 97.3274 34.4497C97.6845 34.6322 97.9722 34.7826 98.1906 34.9012C98.413 35.0189 98.5895 35.0829 98.7202 35.0932C98.8532 35.1051 98.9654 35.0442 99.0569 34.9106L99.0762 34.8824C99.3137 34.5355 99.4032 34.2009 99.3449 33.8787C99.289 33.5581 99.0699 33.267 98.6878 33.0054C98.2916 32.7342 97.9216 32.6084 97.5778 32.6278C97.234 32.6472 96.949 32.7241 96.7228 32.8584L96.1277 32.038C96.493 31.806 96.8555 31.6789 97.215 31.6565C97.5786 31.6334 97.9247 31.6809 98.2534 31.7992C98.5861 31.9168 98.8884 32.0686 99.1603 32.2548C99.3338 32.3735 99.5186 32.531 99.7148 32.7273C99.9149 32.9228 100.077 33.156 100.201 33.427C100.328 33.6997 100.374 34.0119 100.34 34.3637C100.306 34.7155 100.142 35.1059 99.8483 35.5349L97.4124 39.0936L96.5825 38.5255L97.0831 37.7941L97.0409 37.7652C96.9044 37.8439 96.7248 37.9051 96.5021 37.9489C96.2793 37.9926 96.0269 37.9868 95.7446 37.9313C95.4624 37.8759 95.1643 37.7406 94.8501 37.5256ZM95.487 36.8668C95.8152 37.0914 96.136 37.2163 96.4493 37.2414C96.7649 37.2681 97.05 37.2188 97.3045 37.0935C97.5613 36.9698 97.7667 36.7954 97.9208 36.5703L98.4407 35.8108C98.3767 35.8289 98.2728 35.8146 98.1292 35.768C97.9895 35.7206 97.8335 35.6568 97.6611 35.5767C97.4927 35.4958 97.3294 35.415 97.1712 35.3343C97.017 35.2528 96.8913 35.1874 96.7942 35.1382C96.5592 35.0187 96.3263 34.9264 96.0955 34.8613C95.8685 34.7955 95.6551 34.7854 95.4552 34.831C95.2592 34.8759 95.089 35.0038 94.9446 35.2148C94.7472 35.5032 94.7047 35.7942 94.8169 36.0879C94.9331 36.3809 95.1565 36.6405 95.487 36.8668Z" fill="white"/>
<path d="M107.415 41.6991L106.613 41.2111C106.684 41.067 106.734 40.906 106.763 40.7282C106.796 40.5505 106.783 40.361 106.724 40.1598C106.665 39.9586 106.536 39.7508 106.337 39.5364C106.064 39.2429 105.77 39.0611 105.453 38.991C105.14 38.9212 104.88 38.9819 104.674 39.1733C104.491 39.3434 104.408 39.5444 104.425 39.7762C104.443 40.008 104.548 40.2983 104.74 40.6472L105.226 41.5215C105.52 42.0471 105.658 42.5145 105.639 42.9239C105.621 43.3313 105.445 43.6906 105.11 44.0019C104.835 44.257 104.516 44.406 104.153 44.4489C103.791 44.4938 103.418 44.4337 103.032 44.2686C102.646 44.1036 102.28 43.8347 101.934 43.4621C101.48 42.9728 101.21 42.4693 101.124 41.9516C101.039 41.4338 101.161 40.9428 101.49 40.4786L102.314 41.0157C102.118 41.322 102.041 41.6277 102.084 41.9328C102.129 42.2401 102.292 42.5446 102.572 42.8465C102.891 43.19 103.217 43.395 103.55 43.4616C103.887 43.5284 104.159 43.4661 104.365 43.2747C104.532 43.1201 104.617 42.9323 104.621 42.7113C104.627 42.4884 104.547 42.2301 104.379 41.9364L103.824 40.963C103.52 40.4271 103.382 39.9546 103.409 39.5455C103.44 39.1366 103.621 38.7785 103.952 38.4711C104.223 38.2198 104.533 38.0735 104.882 38.0322C105.233 37.9929 105.591 38.0504 105.955 38.2046C106.321 38.3609 106.661 38.6076 106.974 38.9449C107.415 39.4195 107.657 39.8888 107.7 40.3528C107.745 40.8188 107.65 41.2676 107.415 41.6991Z" fill="white"/>
<path d="M105.711 48.1198C105.479 47.7764 105.332 47.4209 105.272 47.0534C105.214 46.6843 105.253 46.3338 105.388 46.0018C105.526 45.6683 105.771 45.382 106.124 45.1431C106.435 44.9327 106.728 44.8234 107.003 44.8151C107.282 44.8052 107.545 44.8651 107.794 44.9948C108.043 45.1246 108.279 45.2946 108.5 45.5049C108.725 45.716 108.94 45.9363 109.143 46.1656C109.409 46.4662 109.621 46.7117 109.781 46.902C109.945 47.093 110.085 47.2173 110.203 47.2747C110.323 47.3345 110.449 47.319 110.584 47.2282L110.612 47.2091C110.96 46.9733 111.166 46.6948 111.23 46.3736C111.295 46.0548 111.198 45.7037 110.938 45.3203C110.669 44.9228 110.371 44.6701 110.044 44.5622C109.717 44.4543 109.423 44.4214 109.164 44.4635L108.911 43.482C109.336 43.4001 109.719 43.4146 110.062 43.5255C110.409 43.6372 110.714 43.8083 110.976 44.0388C111.243 44.2701 111.468 44.5222 111.653 44.795C111.771 44.9691 111.885 45.1833 111.996 45.4378C112.11 45.6931 112.176 45.9695 112.192 46.2673C112.21 46.5673 112.139 46.8748 111.978 47.1896C111.817 47.5043 111.522 47.8075 111.091 48.0991L107.521 50.5176L106.957 49.685L107.69 49.1879L107.662 49.1455C107.506 49.1687 107.316 49.1599 107.093 49.119C106.87 49.0781 106.637 48.9801 106.395 48.8251C106.152 48.6701 105.925 48.435 105.711 48.1198ZM106.545 47.7402C106.768 48.0695 107.021 48.3032 107.303 48.4414C107.587 48.5819 107.87 48.6405 108.153 48.6171C108.437 48.5961 108.692 48.5091 108.918 48.3562L109.68 47.84C109.614 47.8334 109.523 47.7821 109.406 47.686C109.294 47.5907 109.172 47.4742 109.041 47.3365C108.914 47.1995 108.791 47.0645 108.674 46.9314C108.56 46.7991 108.467 46.6922 108.395 46.6108C108.22 46.4135 108.037 46.2423 107.846 46.0972C107.659 45.9528 107.464 45.8652 107.262 45.8344C107.063 45.8043 106.857 45.861 106.646 46.0044C106.356 46.2003 106.21 46.4555 106.207 46.7699C106.208 47.0851 106.32 47.4085 106.545 47.7402Z" fill="white"/>
<path d="M108.272 51.4772L114.311 48.9523L114.686 49.8487L113.743 50.2432L113.775 50.3219C114.15 50.3129 114.486 50.4114 114.781 50.6173C115.079 50.8221 115.311 51.1211 115.475 51.5143C115.641 51.9127 115.69 52.282 115.619 52.6224C115.553 52.9642 115.39 53.2773 115.13 53.5615L115.156 53.6244C115.533 53.6486 115.877 53.777 116.19 54.0096C116.506 54.241 116.754 54.573 116.935 55.0055C117.16 55.5454 117.176 56.0577 116.981 56.5425C116.789 57.0261 116.338 57.4164 115.628 57.7134L111.586 59.4032L111.198 58.4754L115.24 56.7855C115.686 56.5992 115.953 56.3442 116.043 56.0205C116.132 55.6967 116.108 55.3697 115.97 55.0394C115.792 54.6148 115.526 54.3396 115.172 54.2137C114.82 54.0868 114.449 54.1049 114.058 54.2682L110.127 55.912L109.732 54.9684L113.868 53.2391C114.212 53.0956 114.441 52.8686 114.558 52.5581C114.677 52.2466 114.663 51.9152 114.516 51.564C114.416 51.3228 114.257 51.1243 114.041 50.9683C113.826 50.8149 113.578 50.7217 113.296 50.6886C113.018 50.657 112.731 50.7032 112.435 50.827L108.66 52.4051L108.272 51.4772Z" fill="white"/>
<path d="M109.483 61.2912L118.336 59.6737L118.511 60.6295L117.488 60.8163L117.509 60.9337C117.634 60.986 117.795 61.0605 117.992 61.1574C118.192 61.2566 118.383 61.4153 118.564 61.6334C118.749 61.8538 118.88 62.1736 118.956 62.5928C119.055 63.1349 119.007 63.6376 118.811 64.1007C118.616 64.5638 118.291 64.9568 117.836 65.2797C117.38 65.6025 116.815 65.8257 116.139 65.9493C115.457 66.0738 114.844 66.0659 114.302 65.9253C113.762 65.7842 113.318 65.5333 112.969 65.1725C112.622 64.8112 112.4 64.3623 112.302 63.8257C112.227 63.4121 112.235 63.0684 112.326 62.7947C112.421 62.5204 112.543 62.3002 112.695 62.1339C112.849 61.967 112.979 61.8366 113.083 61.7425L113.067 61.6586L109.663 62.2805L109.483 61.2912ZM115.294 61.2344C114.808 61.3233 114.392 61.4729 114.047 61.6833C113.704 61.8933 113.453 62.1543 113.293 62.4665C113.136 62.7781 113.094 63.1324 113.167 63.5292C113.242 63.9428 113.414 64.2681 113.683 64.5049C113.955 64.744 114.289 64.8995 114.686 64.9713C115.087 65.0454 115.516 65.0406 115.975 64.9569C116.427 64.8742 116.823 64.7298 117.16 64.5237C117.501 64.3198 117.753 64.0588 117.914 63.7405C118.079 63.4245 118.123 63.0569 118.046 62.6378C117.972 62.2353 117.809 61.9158 117.555 61.6792C117.303 61.4421 116.983 61.2869 116.595 61.2135C116.208 61.1396 115.775 61.1466 115.294 61.2344Z" fill="white"/>
<path d="M121.777 68.6926L113.067 69.2307L113.005 68.227L121.715 67.6888L121.777 68.6926Z" fill="white"/>
<path d="M112.902 73.617C112.936 72.9873 113.105 72.4515 113.407 72.0099C113.713 71.5712 114.123 71.242 114.639 71.0224C115.157 70.8057 115.751 70.7155 116.42 70.7517C117.089 70.7879 117.673 70.9418 118.17 71.2134C118.67 71.488 119.052 71.8529 119.315 72.3081C119.58 72.7663 119.697 73.2904 119.665 73.8804C119.646 74.2208 119.572 74.5539 119.44 74.8797C119.309 75.2054 119.108 75.4976 118.838 75.7561C118.571 76.0148 118.224 76.2137 117.798 76.3528C117.373 76.492 116.855 76.545 116.245 76.512L115.819 76.489L116.092 71.4509L116.96 71.4979L116.743 75.5147C117.112 75.5347 117.445 75.4787 117.742 75.3469C118.039 75.2179 118.279 75.0231 118.461 74.7627C118.642 74.5051 118.743 74.1947 118.763 73.8316C118.784 73.4316 118.704 73.0802 118.521 72.7773C118.341 72.4773 118.098 72.2408 117.791 72.0678C117.485 71.8947 117.151 71.7984 116.791 71.779L116.213 71.7477C115.719 71.721 115.296 71.7834 114.943 71.9351C114.594 72.0897 114.321 72.3154 114.126 72.6121C113.933 72.9089 113.826 73.2602 113.804 73.6658C113.79 73.9296 113.814 74.1699 113.876 74.3867C113.941 74.6064 114.045 74.7984 114.186 74.9625C114.331 75.1268 114.515 75.2577 114.737 75.355L114.412 76.3105C114.089 76.1906 113.809 76.0033 113.572 75.7487C113.338 75.4942 113.162 75.1859 113.042 74.8238C112.925 74.4618 112.878 74.0596 112.902 73.617Z" fill="white"/>
<path d="M117.821 84.3186L116.996 84.1049L117.846 80.8212L118.671 81.0349L117.821 84.3186ZM119.941 82.3851L119.689 83.3587L113.65 81.7945C113.375 81.7232 113.158 81.7097 113 81.7538C112.844 81.8014 112.726 81.8824 112.647 81.9968C112.569 82.1147 112.512 82.2451 112.475 82.3881C112.447 82.4954 112.43 82.5848 112.423 82.6564C112.419 82.7287 112.416 82.7866 112.413 82.83L111.487 82.8015C111.48 82.729 111.479 82.6305 111.485 82.5058C111.488 82.3805 111.513 82.227 111.56 82.0455C111.631 81.7705 111.76 81.5163 111.947 81.2829C112.133 81.0523 112.369 80.8817 112.656 80.7711C112.942 80.6633 113.269 80.6571 113.638 80.7525L119.941 82.3851Z" fill="white"/>
<path d="M110.937 84.3368L117.099 86.5458L116.759 87.4925L110.598 85.2835L110.937 84.3368ZM117.953 87.3954C118.019 87.2108 118.139 87.0742 118.313 86.9856C118.485 86.8996 118.66 86.8883 118.836 86.9516C119.013 87.0148 119.141 87.1345 119.219 87.3106C119.297 87.4894 119.303 87.671 119.237 87.8556C119.17 88.0401 119.051 88.1753 118.878 88.2613C118.705 88.35 118.53 88.3626 118.353 88.2994C118.177 88.2361 118.05 88.1151 117.972 87.9363C117.893 87.7602 117.887 87.5799 117.953 87.3954Z" fill="white"/>
<path d="M107.972 85.5713L116.021 89.598L115.586 90.4669L114.657 90.0017L114.603 90.1084C114.672 90.2253 114.756 90.3816 114.855 90.5773C114.955 90.7768 115.012 91.0182 115.026 91.3015C115.041 91.5886 114.953 91.9228 114.763 92.3039C114.516 92.7968 114.176 93.1696 113.741 93.4223C113.307 93.675 112.81 93.7937 112.253 93.7784C111.695 93.763 111.109 93.6015 110.494 93.2939C109.874 92.9838 109.389 92.6095 109.04 92.1711C108.693 91.734 108.489 91.2664 108.427 90.7684C108.367 90.2716 108.459 89.7793 108.703 89.2915C108.891 88.9155 109.104 88.6455 109.342 88.4817C109.582 88.3191 109.813 88.2169 110.034 88.175C110.257 88.1344 110.439 88.1078 110.579 88.0951L110.617 88.0189L107.522 86.4708L107.972 85.5713ZM112.652 89.0179C112.21 88.7968 111.787 88.6664 111.385 88.627C110.985 88.5888 110.627 88.6465 110.312 88.8002C109.999 88.9551 109.753 89.213 109.572 89.5737C109.384 89.9498 109.326 90.3131 109.399 90.6638C109.472 91.0183 109.646 91.3435 109.92 91.6396C110.196 91.9395 110.542 92.1937 110.959 92.4021C111.371 92.6081 111.773 92.7301 112.167 92.7683C112.562 92.8103 112.92 92.7526 113.24 92.5951C113.562 92.4415 113.818 92.1741 114.008 91.793C114.191 91.4271 114.252 91.0733 114.191 90.7315C114.133 90.391 113.97 90.0746 113.704 89.7823C113.44 89.4913 113.089 89.2365 112.652 89.0179Z" fill="white"/>
<path d="M67.4841 110.572C67.9677 110.619 68.3773 110.721 68.7131 110.879C69.0491 111.034 69.3234 111.224 69.5358 111.447C69.7457 111.667 69.9076 111.897 70.0215 112.136L69.1699 112.619C69.0909 112.491 68.9895 112.344 68.8657 112.178C68.7422 112.009 68.5657 111.857 68.3363 111.72C68.1043 111.581 67.7918 111.492 67.3988 111.454C66.8728 111.403 66.4265 111.489 66.0597 111.71C65.6929 111.931 65.4833 112.314 65.4308 112.856L65.3027 114.18L65.3876 114.188C65.4726 114.076 65.5914 113.939 65.7441 113.777C65.8937 113.618 66.1009 113.482 66.3657 113.371C66.6274 113.262 66.9703 113.228 67.3945 113.269C67.9204 113.32 68.3806 113.49 68.775 113.779C69.1666 114.068 69.4611 114.462 69.6583 114.961C69.8527 115.459 69.9171 116.048 69.8514 116.726C69.7868 117.394 69.6133 117.963 69.3307 118.435C69.0479 118.91 68.6841 119.263 68.2393 119.494C67.7943 119.728 67.2975 119.819 66.7489 119.765C66.3247 119.724 65.9951 119.621 65.7599 119.456C65.5216 119.293 65.3447 119.116 65.229 118.925C65.1102 118.736 65.0196 118.582 64.957 118.462L64.8552 118.452L64.7551 119.487L63.788 119.393L64.4363 112.692C64.4905 112.132 64.6618 111.689 64.9502 111.363C65.236 111.034 65.6004 110.808 66.0432 110.685C66.4835 110.559 66.9638 110.522 67.4841 110.572ZM67.1718 114.155C66.7702 114.116 66.422 114.175 66.1271 114.332C65.8322 114.489 65.596 114.733 65.4184 115.064C65.2408 115.395 65.1288 115.801 65.0822 116.282C65.0368 116.751 65.0675 117.172 65.1741 117.545C65.2807 117.918 65.4628 118.22 65.7202 118.45C65.9776 118.68 66.3099 118.815 66.7171 118.855C67.1413 118.896 67.5051 118.823 67.8087 118.635C68.1094 118.447 68.348 118.179 68.5244 117.831C68.698 117.482 68.8061 117.087 68.8488 116.646C68.8925 116.194 68.8605 115.787 68.7528 115.425C68.642 115.067 68.4561 114.775 68.1953 114.55C67.9315 114.327 67.5903 114.196 67.1718 114.155Z" fill="white"/>
<path d="M59.9861 111.711C60.5948 111.876 61.0834 112.153 61.452 112.541C61.817 112.932 62.053 113.402 62.16 113.952C62.2634 114.504 62.2274 115.104 62.0519 115.751C61.8764 116.398 61.6038 116.936 61.2342 117.366C60.861 117.797 60.4244 118.094 59.9243 118.256C59.4207 118.419 58.8838 118.424 58.3135 118.269C57.9845 118.18 57.6744 118.037 57.3834 117.84C57.0923 117.643 56.8486 117.386 56.6523 117.068C56.4553 116.752 56.3333 116.372 56.2863 115.927C56.2394 115.481 56.2958 114.964 56.4557 114.374L56.5672 113.963L61.4368 115.284L61.2092 116.123L57.3268 115.07C57.2301 115.426 57.2151 115.763 57.2818 116.082C57.3458 116.399 57.4861 116.674 57.7027 116.907C57.9166 117.139 58.199 117.302 58.5499 117.397C58.9365 117.502 59.2971 117.497 59.6315 117.381C59.9625 117.268 60.2447 117.08 60.478 116.816C60.7114 116.553 60.8753 116.247 60.9697 115.899L61.1214 115.339C61.2508 114.862 61.2782 114.436 61.2037 114.059C61.1257 113.685 60.962 113.371 60.7128 113.118C60.4627 112.868 60.1417 112.689 59.7496 112.583C59.4946 112.514 59.2546 112.487 59.0297 112.503C58.8012 112.52 58.5919 112.581 58.4016 112.686C58.2107 112.793 58.0443 112.945 57.9026 113.142L57.0363 112.624C57.2212 112.333 57.463 112.098 57.7615 111.92C58.0592 111.745 58.3977 111.637 58.7768 111.595C59.1553 111.556 59.5584 111.595 59.9861 111.711Z" fill="white"/>
<path d="M51.2574 115.644L51.5897 114.859L54.7133 116.182L54.381 116.967L51.2574 115.644ZM52.8592 118.025L51.9331 117.633L54.3656 111.888C54.4763 111.627 54.5215 111.414 54.501 111.251C54.4768 111.09 54.4139 110.962 54.3124 110.866C54.2072 110.772 54.0865 110.696 53.9505 110.639C53.8485 110.596 53.7626 110.565 53.6927 110.548C53.6218 110.534 53.565 110.522 53.5225 110.513L53.6863 109.602C53.7591 109.605 53.8567 109.618 53.9792 109.642C54.1027 109.664 54.2509 109.711 54.4235 109.784C54.6851 109.895 54.9177 110.06 55.1212 110.278C55.3221 110.496 55.4562 110.755 55.5235 111.055C55.5883 111.354 55.5464 111.679 55.398 112.029L52.8592 118.025Z" fill="white"/>
<path d="M48.5201 106.476C48.8624 106.71 49.1289 106.987 49.3196 107.307C49.5087 107.629 49.6011 107.97 49.5967 108.328C49.5907 108.689 49.4673 109.045 49.2266 109.397C49.0148 109.706 48.7821 109.915 48.5287 110.024C48.2736 110.135 48.0063 110.176 47.727 110.147C47.4476 110.117 47.1664 110.045 46.8833 109.931C46.5963 109.817 46.3161 109.69 46.0428 109.552C45.6857 109.369 45.398 109.219 45.1796 109.1C44.9573 108.982 44.7808 108.918 44.6501 108.908C44.517 108.896 44.4048 108.957 44.3133 109.091L44.2941 109.119C44.0566 109.466 43.967 109.8 44.0253 110.123C44.0813 110.443 44.3003 110.734 44.6824 110.996C45.0786 111.267 45.4486 111.393 45.7924 111.374C46.1362 111.354 46.4212 111.277 46.6474 111.143L47.2426 111.963C46.8772 112.195 46.5148 112.322 46.1552 112.345C45.7916 112.368 45.4455 112.32 45.1168 112.202C44.7841 112.085 44.4818 111.933 44.2099 111.747C44.0364 111.628 43.8516 111.47 43.6554 111.274C43.4553 111.079 43.2931 110.845 43.1687 110.574C43.0421 110.302 42.9959 109.989 43.0301 109.638C43.0644 109.286 43.2283 108.895 43.522 108.466L45.9579 104.908L46.7878 105.476L46.2871 106.207L46.3293 106.236C46.4658 106.157 46.6454 106.096 46.8682 106.052C47.0909 106.009 47.3434 106.015 47.6256 106.07C47.9078 106.125 48.206 106.261 48.5201 106.476ZM47.8832 107.135C47.555 106.91 47.2343 106.785 46.921 106.76C46.6053 106.733 46.3202 106.782 46.0658 106.908C45.8089 107.032 45.6035 107.206 45.4495 107.431L44.9295 108.191C44.9936 108.172 45.0974 108.187 45.2411 108.233C45.3807 108.281 45.5368 108.345 45.7091 108.425C45.8776 108.506 46.0409 108.586 46.1991 108.667C46.3533 108.749 46.479 108.814 46.5761 108.863C46.811 108.983 47.0439 109.075 47.2748 109.14C47.5017 109.206 47.7151 109.216 47.915 109.17C48.111 109.125 48.2812 108.997 48.4256 108.787C48.623 108.498 48.6656 108.207 48.5533 107.913C48.4371 107.62 48.2138 107.361 47.8832 107.135Z" fill="white"/>
<path d="M35.9556 102.302L36.7576 102.79C36.686 102.934 36.6358 103.095 36.6071 103.273C36.5744 103.451 36.5875 103.64 36.6463 103.841C36.7052 104.043 36.8342 104.25 37.0333 104.465C37.3059 104.758 37.6007 104.94 37.9177 105.01C38.2307 105.08 38.4903 105.019 38.6964 104.828C38.8796 104.658 38.9624 104.457 38.9449 104.225C38.9273 103.993 38.8225 103.703 38.6304 103.354L38.1441 102.48C37.85 101.954 37.7125 101.487 37.7317 101.077C37.7488 100.67 37.9249 100.311 38.2601 99.9994C38.5349 99.7443 38.854 99.5953 39.2174 99.5525C39.5789 99.5076 39.9526 99.5676 40.3385 99.7327C40.7244 99.8977 41.0903 100.167 41.4363 100.539C41.8906 101.028 42.1604 101.532 42.2458 102.05C42.3311 102.568 42.2094 103.059 41.8806 103.523L41.0563 102.986C41.2525 102.679 41.3292 102.374 41.2862 102.068C41.2413 101.761 41.0787 101.457 40.7984 101.155C40.4795 100.811 40.1534 100.606 39.8201 100.54C39.4829 100.473 39.2112 100.535 39.0051 100.727C38.8386 100.881 38.7532 101.069 38.749 101.29C38.7428 101.513 38.8237 101.771 38.9917 102.065L39.5467 103.038C39.8504 103.574 39.9887 104.047 39.9615 104.456C39.9303 104.865 39.7492 105.223 39.4182 105.53C39.1475 105.781 38.8376 105.928 38.4883 105.969C38.137 106.008 37.7793 105.951 37.4152 105.797C37.0491 105.64 36.7095 105.394 36.3963 105.056C35.9555 104.582 35.7136 104.112 35.6705 103.649C35.6254 103.183 35.7205 102.734 35.9556 102.302Z" fill="white"/>
<path d="M37.6591 95.8815C37.8917 96.2249 38.0381 96.5804 38.0984 96.9479C38.1563 97.317 38.1175 97.6675 37.982 97.9995C37.8442 98.333 37.5989 98.6193 37.2461 98.8583C36.9356 99.0686 36.6425 99.1779 36.3668 99.1862C36.0887 99.1961 35.8251 99.1362 35.576 99.0065C35.3268 98.8767 35.0915 98.7067 34.8701 98.4964C34.6448 98.2853 34.4304 98.0651 34.227 97.8357C33.9616 97.5351 33.7491 97.2896 33.5893 97.0993C33.4256 96.9083 33.2848 96.784 33.1669 96.7266C33.0475 96.6668 32.9208 96.6823 32.7867 96.7731L32.7585 96.7922C32.4104 97.028 32.2044 97.3065 32.1406 97.6277C32.0752 97.9465 32.1723 98.2976 32.432 98.681C32.7013 99.0785 32.9994 99.3312 33.3264 99.4391C33.6534 99.547 33.9468 99.5799 34.2065 99.5378L34.4596 100.519C34.0347 100.601 33.6508 100.587 33.308 100.476C32.9613 100.364 32.6567 100.193 32.3942 99.9625C32.1277 99.7312 31.9021 99.4791 31.7173 99.2063C31.5994 99.0322 31.4851 98.818 31.3745 98.5635C31.26 98.3083 31.1945 98.0318 31.1781 97.734C31.1601 97.434 31.2315 97.1265 31.3923 96.8118C31.5531 96.497 31.8487 96.1938 32.2792 95.9022L35.8497 93.4837L36.4137 94.3164L35.6798 94.8134L35.7085 94.8558C35.8643 94.8326 36.0539 94.8414 36.2772 94.8823C36.5005 94.9232 36.7332 95.0212 36.9755 95.1762C37.2177 95.3312 37.4456 95.5663 37.6591 95.8815ZM36.8251 96.2611C36.6021 95.9318 36.3494 95.6981 36.0671 95.5599C35.7832 95.4194 35.4998 95.3608 35.2171 95.3842C34.9329 95.4052 34.6778 95.4922 34.452 95.6451L33.6899 96.1613C33.7562 96.1679 33.8475 96.2192 33.9641 96.3153C34.0767 96.4106 34.1985 96.5271 34.3295 96.6648C34.4566 96.8018 34.5789 96.9368 34.6965 97.0699C34.8102 97.2022 34.9032 97.3091 34.9755 97.3905C35.1503 97.5878 35.3331 97.759 35.5241 97.9041C35.7111 98.0485 35.906 98.1361 36.1087 98.1669C36.3075 98.197 36.5127 98.1403 36.7244 97.9969C37.0137 97.801 37.16 97.5458 37.1632 97.2314C37.1625 96.9162 37.0498 96.5928 36.8251 96.2611Z" fill="white"/>
<path d="M35.0978 92.5241L29.0589 95.049L28.6841 94.1526L29.6277 93.7581L29.5948 93.6794C29.2198 93.6884 28.8846 93.59 28.5891 93.384C28.291 93.1792 28.0597 92.8802 27.8954 92.487C27.7288 92.0886 27.6806 91.7193 27.7507 91.3789C27.8172 91.0371 27.9804 90.724 28.2403 90.4398L28.214 90.3769C27.8374 90.3527 27.4928 90.2243 27.18 89.9917C26.8646 89.7603 26.6165 89.4283 26.4356 88.9958C26.2099 88.4559 26.1943 87.9436 26.3888 87.4588C26.5808 86.9752 27.0319 86.5849 27.7422 86.2879L31.7838 84.5981L32.1718 85.5259L28.1301 87.2158C27.6846 87.4021 27.4171 87.6571 27.3276 87.9809C27.2382 88.3046 27.2626 88.6316 27.4006 88.9619C27.5782 89.3865 27.8441 89.6617 28.1985 89.7876C28.5503 89.9146 28.9215 89.8964 29.312 89.7331L33.2435 88.0893L33.638 89.0329L29.5021 90.7622C29.1587 90.9057 28.9288 91.1327 28.8122 91.4432C28.6931 91.7547 28.7069 92.0861 28.8538 92.4373C28.9546 92.6785 29.1131 92.877 29.3292 93.033C29.5442 93.1864 29.7925 93.2796 30.0743 93.3127C30.3523 93.3443 30.6394 93.2981 30.9355 93.1743L34.7098 91.5962L35.0978 92.5241Z" fill="white"/>
<path d="M33.8875 82.7101L25.034 84.3276L24.8594 83.3718L25.8823 83.185L25.8608 83.0676C25.7358 83.0154 25.5749 82.9408 25.3781 82.8439C25.178 82.7447 24.9873 82.5861 24.806 82.3679C24.6213 82.1475 24.4907 81.8277 24.4141 81.4085C24.315 80.8664 24.3633 80.3637 24.5588 79.9006C24.7543 79.4375 25.0796 79.0445 25.5347 78.7216C25.9897 78.3988 26.5554 78.1756 27.2317 78.052C27.9136 77.9275 28.5259 77.9355 29.0685 78.076C29.6083 78.2171 30.0527 78.468 30.4016 78.8288C30.7478 79.1901 30.9699 79.639 31.0679 80.1756C31.1435 80.5892 31.1355 80.9329 31.044 81.2066C30.9497 81.4809 30.8268 81.7011 30.6752 81.8675C30.5209 82.0343 30.3916 82.1647 30.2875 82.2588L30.3029 82.3427L33.7067 81.7208L33.8875 82.7101ZM28.0758 82.7669C28.5621 82.678 28.978 82.5284 29.3237 82.318C29.6665 82.1081 29.9177 81.847 30.0773 81.5348C30.2341 81.2232 30.2762 80.8689 30.2037 80.4721C30.1281 80.0585 29.9561 79.7333 29.6876 79.4964C29.4157 79.2573 29.0812 79.1018 28.684 79.03C28.2835 78.9559 27.854 78.9607 27.3957 79.0444C26.943 79.1271 26.5477 79.2715 26.2099 79.4776C25.8689 79.6815 25.6177 79.9425 25.4563 80.2608C25.2917 80.5768 25.2477 80.9444 25.3242 81.3636C25.3978 81.766 25.5615 82.0855 25.8156 82.3221C26.0668 82.5592 26.3869 82.7145 26.7757 82.7878C27.1618 82.8617 27.5951 82.8547 28.0758 82.7669Z" fill="white"/>
<path d="M21.5929 75.3088L30.3036 74.7706L30.3656 75.7744L21.6549 76.3125L21.5929 75.3088Z" fill="white"/>
<path d="M30.4681 70.3843C30.434 71.014 30.2656 71.5498 29.9629 71.9914C29.6575 72.4301 29.2471 72.7593 28.7316 72.9789C28.2135 73.1956 27.6197 73.2858 26.9502 73.2496C26.2807 73.2134 25.6973 73.0595 25.1999 72.7879C24.6998 72.5133 24.3184 72.1484 24.0556 71.6932C23.7902 71.235 23.6735 70.7109 23.7054 70.1209C23.7238 69.7805 23.7987 69.4474 23.9301 69.1216C24.0616 68.7959 24.2623 68.5037 24.5323 68.2452C24.7995 67.9865 25.146 67.7876 25.5718 67.6485C25.9975 67.5093 26.5154 67.4563 27.1253 67.4893L27.5508 67.5123L27.2782 72.5504L26.4102 72.5034L26.6275 68.4866C26.2587 68.4666 25.9256 68.5226 25.6283 68.6544C25.3311 68.7835 25.0916 68.9782 24.9096 69.2386C24.7278 69.4962 24.6271 69.8066 24.6075 70.1697C24.5858 70.5697 24.6664 70.9211 24.8492 71.224C25.0293 71.524 25.2725 71.7605 25.579 71.9335C25.8854 72.1066 26.2188 72.2029 26.579 72.2224L27.1577 72.2537C27.6513 72.2804 28.0744 72.2179 28.4268 72.0662C28.7766 71.9116 29.0491 71.686 29.2444 71.3893C29.4368 71.0924 29.544 70.7411 29.566 70.3355C29.5803 70.0717 29.5563 69.8314 29.494 69.6146C29.4291 69.3949 29.3257 69.203 29.1838 69.0388C29.039 68.8745 28.8555 68.7436 28.6331 68.6463L28.958 67.6908C29.2815 67.8107 29.5616 67.998 29.7982 68.2527C30.0319 68.5071 30.2087 68.8154 30.3285 69.1775C30.4455 69.5395 30.492 69.9417 30.4681 70.3843Z" fill="white"/>
<path d="M25.5497 59.6827L26.3747 59.8964L25.5242 63.1801L24.6992 62.9664L25.5497 59.6827ZM23.429 61.6162L23.6811 60.6426L29.7205 62.2069C29.9955 62.2781 30.2121 62.2916 30.3702 62.2475C30.5264 62.1999 30.6442 62.1189 30.7237 62.0045C30.8012 61.8866 30.8584 61.7562 30.8955 61.6132C30.9233 61.5059 30.9406 61.4165 30.9474 61.3449C30.9514 61.2726 30.9547 61.2147 30.9571 61.1713L31.8829 61.1999C31.8906 61.2723 31.8915 61.3708 31.8856 61.4955C31.8825 61.6209 31.8574 61.7743 31.8104 61.9558C31.7392 62.2308 31.6102 62.485 31.4236 62.7184C31.2377 62.9491 31.0013 63.1197 30.7144 63.2302C30.4282 63.3381 30.1008 63.3442 29.7323 63.2488L23.429 61.6162Z" fill="white"/>
<path d="M32.433 59.6645L26.2716 57.4555L26.611 56.5088L32.7724 58.7178L32.433 59.6645ZM25.4173 56.6059C25.3511 56.7905 25.2312 56.9271 25.0576 57.0157C24.8849 57.1017 24.7103 57.113 24.5338 57.0498C24.3573 56.9865 24.2297 56.8668 24.151 56.6907C24.0733 56.5119 24.0675 56.3303 24.1336 56.1457C24.1998 55.9612 24.3192 55.826 24.4919 55.74C24.6655 55.6513 24.8406 55.6387 25.0171 55.7019C25.1936 55.7652 25.3207 55.8862 25.3984 56.065C25.4771 56.2411 25.4834 56.4214 25.4173 56.6059Z" fill="white"/>
<path d="M35.3981 58.43L27.3491 54.4033L27.7838 53.5344L28.7137 53.9996L28.767 53.8929C28.6985 53.776 28.6146 53.6197 28.5156 53.424C28.4153 53.2245 28.3581 52.9831 28.3442 52.6998C28.329 52.4127 28.4168 52.0786 28.6074 51.6975C28.854 51.2046 29.1946 50.8317 29.6291 50.579C30.0637 50.3263 30.5599 50.2076 31.1176 50.2229C31.6753 50.2383 32.2616 50.3998 32.8765 50.7074C33.4964 51.0175 33.981 51.3918 34.3303 51.8302C34.6771 52.2673 34.8815 52.7349 34.9437 53.2329C35.0033 53.7297 34.9111 54.222 34.667 54.7098C34.4789 55.0858 34.2661 55.3558 34.0284 55.5196C33.7883 55.6822 33.5577 55.7844 33.3366 55.8263C33.113 55.8669 32.9313 55.8935 32.7915 55.9062L32.7534 55.9824L35.848 57.5306L35.3981 58.43ZM30.7183 54.9834C31.1604 55.2046 31.5828 55.3349 31.9855 55.3743C32.3857 55.4125 32.7434 55.3548 33.0585 55.2012C33.3711 55.0462 33.6176 54.7884 33.7981 54.4276C33.9862 54.0516 34.0441 53.6882 33.9717 53.3375C33.8981 52.983 33.7241 52.6578 33.4498 52.3617C33.1741 52.0618 32.828 51.8076 32.4113 51.5992C31.9997 51.3933 31.597 51.2712 31.2031 51.233C30.808 51.191 30.4504 51.2487 30.1302 51.4062C29.8087 51.5599 29.5527 51.8272 29.362 52.2084C29.179 52.5742 29.1179 52.928 29.1788 53.2698C29.2372 53.6103 29.3997 53.9267 29.6665 54.219C29.9307 54.51 30.2813 54.7648 30.7183 54.9834Z" fill="white"/>
</svg>
