<svg width="37" height="37" viewBox="0 0 37 37" fill="none" xmlns="http://www.w3.org/2000/svg">
<path d="M19.5523 33.9166V21.9764H15.5342V17.323H19.5523V13.8912C19.2436 10.81 21.4911 8.06196 24.5723 7.75327C24.893 7.72115 25.2159 7.71672 25.5373 7.74006C26.7366 7.73584 27.9353 7.79709 29.1279 7.92352V12.0855L26.6638 12.0867C24.7318 12.0867 24.3576 13.0048 24.3576 14.352V17.323H28.9657L28.3656 21.9764H24.3578V33.9166L19.5523 33.9166Z" fill="black"/>
<path d="M32.3735 3.08331H4.62187C3.77048 3.08331 3.0802 3.7735 3.0802 4.62498V32.3765C3.0802 33.228 3.77048 33.9182 4.62187 33.9182H32.3735C33.2249 33.9182 33.9151 33.228 33.9151 32.3765V4.62498C33.9151 3.7735 33.2248 3.08331 32.3735 3.08331ZM29.1278 12.0855L26.6638 12.0867C24.7318 12.0867 24.3576 13.0048 24.3576 14.352V17.3229H28.9657L28.3656 21.9763H24.3578V33.9166H19.5522V21.9763H15.5342V17.3229H19.5522V13.8912C19.2435 10.81 21.4911 8.06193 24.5723 7.7533C24.893 7.72113 25.2159 7.7167 25.5373 7.74003C26.7366 7.73579 27.9352 7.79705 29.1278 7.92352V12.0855Z" fill="white"/>
</svg>
