<svg width="37" height="37" viewBox="0 0 37 37" fill="none" xmlns="http://www.w3.org/2000/svg">
<path d="M12.469 14.9711H7.84094V28.8939H12.469V14.9711Z" fill="black"/>
<path d="M10.1551 13.0703H10.1247C8.79501 13.1505 7.65203 12.1375 7.57183 10.8078C7.49164 9.47803 8.50459 8.33506 9.83434 8.25486C9.95146 8.2478 10.0689 8.2493 10.1858 8.25932C11.515 8.16305 12.6706 9.1625 12.7668 10.4917C12.8631 11.8209 11.8637 12.9764 10.5345 13.0727C10.4082 13.0818 10.2813 13.081 10.1551 13.0703ZM29.1554 28.8938H24.5281V21.4463C24.5281 19.5744 23.858 18.2978 22.1839 18.2978C21.1143 18.304 20.164 18.9815 19.8093 19.9906C19.6908 20.3546 19.6391 20.7371 19.6569 21.1195V28.8938H15.0295C15.0295 28.8897 15.0902 16.2773 15.03 14.9713H19.6573V16.9446C20.5101 15.4604 22.1177 14.5739 23.828 14.6447C26.8727 14.6447 29.1554 16.6346 29.1554 20.911V28.8938Z" fill="black"/>
<path d="M31.555 3.08336H5.4449C4.20988 3.0685 3.19628 4.05706 3.1803 5.29207V31.7087C3.19638 32.9436 4.20998 33.9319 5.4449 33.9167H31.555C32.7901 33.932 33.8039 32.9434 33.8196 31.7084V5.29207C33.8038 4.05697 32.7901 3.0683 31.555 3.08336ZM12.469 28.8939H7.84086V14.9712H12.469V28.8939ZM10.5345 13.0727C10.4082 13.0818 10.2813 13.0811 10.1552 13.0703H10.1248C8.795 13.1505 7.65201 12.1376 7.57184 10.8078C7.49168 9.47802 8.50461 8.33505 9.83438 8.25488C9.95144 8.24782 10.069 8.24933 10.1858 8.2593C11.515 8.16304 12.6705 9.16254 12.7669 10.4917C12.8631 11.8208 11.8636 12.9764 10.5345 13.0727ZM29.1555 28.8938H24.5281V21.4463C24.5281 19.5744 23.858 18.2978 22.1839 18.2978C21.1143 18.304 20.1639 18.9815 19.8093 19.9906C19.6908 20.3546 19.6392 20.737 19.6568 21.1195V28.8938H15.0295C15.0295 28.8897 15.0902 16.2773 15.03 14.9713H19.6573V16.9446C20.5101 15.4604 22.1178 14.5739 23.828 14.6446C26.8727 14.6446 29.1555 16.6346 29.1555 20.911V28.8938H29.1555Z" fill="white"/>
</svg>
