<svg width="21" height="19" viewBox="0 0 21 19" fill="none" xmlns="http://www.w3.org/2000/svg">
<path d="M15.5 8.5H14.5C14.2348 8.5 13.9804 8.60536 13.7929 8.79289C13.6054 8.98043 13.5 9.23478 13.5 9.5C13.5 9.76522 13.6054 10.0196 13.7929 10.2071C13.9804 10.3946 14.2348 10.5 14.5 10.5H15.5C15.7652 10.5 16.0196 10.3946 16.2071 10.2071C16.3946 10.0196 16.5 9.76522 16.5 9.5C16.5 9.23478 16.3946 8.98043 16.2071 8.79289C16.0196 8.60536 15.7652 8.5 15.5 8.5ZM15.5 12.5H14.5C14.2348 12.5 13.9804 12.6054 13.7929 12.7929C13.6054 12.9804 13.5 13.2348 13.5 13.5C13.5 13.7652 13.6054 14.0196 13.7929 14.2071C13.9804 14.3946 14.2348 14.5 14.5 14.5H15.5C15.7652 14.5 16.0196 14.3946 16.2071 14.2071C16.3946 14.0196 16.5 13.7652 16.5 13.5C16.5 13.2348 16.3946 12.9804 16.2071 12.7929C16.0196 12.6054 15.7652 12.5 15.5 12.5ZM9.5 6.5H15.5C15.7652 6.5 16.0196 6.39464 16.2071 6.20711C16.3946 6.01957 16.5 5.76522 16.5 5.5C16.5 5.23478 16.3946 4.98043 16.2071 4.79289C16.0196 4.60536 15.7652 4.5 15.5 4.5H9.5C9.23478 4.5 8.98043 4.60536 8.79289 4.79289C8.60536 4.98043 8.5 5.23478 8.5 5.5C8.5 5.76522 8.60536 6.01957 8.79289 6.20711C8.98043 6.39464 9.23478 6.5 9.5 6.5ZM19.5 0.5H5.5C5.23478 0.5 4.98043 0.605357 4.79289 0.792893C4.60536 0.98043 4.5 1.23478 4.5 1.5V4.5H1.5C1.23478 4.5 0.98043 4.60536 0.792893 4.79289C0.605357 4.98043 0.5 5.23478 0.5 5.5V15.5C0.5 16.2956 0.816071 17.0587 1.37868 17.6213C1.94129 18.1839 2.70435 18.5 3.5 18.5H16.5C17.5609 18.5 18.5783 18.0786 19.3284 17.3284C20.0786 16.5783 20.5 15.5609 20.5 14.5V1.5C20.5 1.23478 20.3946 0.98043 20.2071 0.792893C20.0196 0.605357 19.7652 0.5 19.5 0.5ZM4.5 15.5C4.5 15.7652 4.39464 16.0196 4.20711 16.2071C4.01957 16.3946 3.76522 16.5 3.5 16.5C3.23478 16.5 2.98043 16.3946 2.79289 16.2071C2.60536 16.0196 2.5 15.7652 2.5 15.5V6.5H4.5V15.5ZM18.5 14.5C18.5 15.0304 18.2893 15.5391 17.9142 15.9142C17.5391 16.2893 17.0304 16.5 16.5 16.5H6.32C6.43642 16.1793 6.4973 15.8411 6.5 15.5V2.5H18.5V14.5ZM9.5 10.5H10.5C10.7652 10.5 11.0196 10.3946 11.2071 10.2071C11.3946 10.0196 11.5 9.76522 11.5 9.5C11.5 9.23478 11.3946 8.98043 11.2071 8.79289C11.0196 8.60536 10.7652 8.5 10.5 8.5H9.5C9.23478 8.5 8.98043 8.60536 8.79289 8.79289C8.60536 8.98043 8.5 9.23478 8.5 9.5C8.5 9.76522 8.60536 10.0196 8.79289 10.2071C8.98043 10.3946 9.23478 10.5 9.5 10.5ZM9.5 14.5H10.5C10.7652 14.5 11.0196 14.3946 11.2071 14.2071C11.3946 14.0196 11.5 13.7652 11.5 13.5C11.5 13.2348 11.3946 12.9804 11.2071 12.7929C11.0196 12.6054 10.7652 12.5 10.5 12.5H9.5C9.23478 12.5 8.98043 12.6054 8.79289 12.7929C8.60536 12.9804 8.5 13.2348 8.5 13.5C8.5 13.7652 8.60536 14.0196 8.79289 14.2071C8.98043 14.3946 9.23478 14.5 9.5 14.5Z" fill="white"/>
</svg>
