<svg width="21" height="19" viewBox="0 0 21 19" fill="none" xmlns="http://www.w3.org/2000/svg">
<path d="M15.5 8.50004H14.5C14.2348 8.50004 13.9804 8.6054 13.7929 8.79294C13.6054 8.98047 13.5 9.23483 13.5 9.50004C13.5 9.76526 13.6054 10.0196 13.7929 10.2071C13.9804 10.3947 14.2348 10.5 14.5 10.5H15.5C15.7652 10.5 16.0196 10.3947 16.2071 10.2071C16.3946 10.0196 16.5 9.76526 16.5 9.50004C16.5 9.23483 16.3946 8.98047 16.2071 8.79294C16.0196 8.6054 15.7652 8.50004 15.5 8.50004ZM15.5 12.5H14.5C14.2348 12.5 13.9804 12.6054 13.7929 12.7929C13.6054 12.9805 13.5 13.2348 13.5 13.5C13.5 13.7653 13.6054 14.0196 13.7929 14.2071C13.9804 14.3947 14.2348 14.5 14.5 14.5H15.5C15.7652 14.5 16.0196 14.3947 16.2071 14.2071C16.3946 14.0196 16.5 13.7653 16.5 13.5C16.5 13.2348 16.3946 12.9805 16.2071 12.7929C16.0196 12.6054 15.7652 12.5 15.5 12.5ZM9.5 6.50004H15.5C15.7652 6.50004 16.0196 6.39468 16.2071 6.20715C16.3946 6.01961 16.5 5.76526 16.5 5.50004C16.5 5.23483 16.3946 4.98047 16.2071 4.79294C16.0196 4.6054 15.7652 4.50004 15.5 4.50004H9.5C9.23478 4.50004 8.98043 4.6054 8.79289 4.79294C8.60536 4.98047 8.5 5.23483 8.5 5.50004C8.5 5.76526 8.60536 6.01961 8.79289 6.20715C8.98043 6.39468 9.23478 6.50004 9.5 6.50004ZM19.5 0.500042H5.5C5.23478 0.500042 4.98043 0.605399 4.79289 0.792935C4.60536 0.980471 4.5 1.23483 4.5 1.50004V4.50004H1.5C1.23478 4.50004 0.98043 4.6054 0.792893 4.79294C0.605357 4.98047 0.5 5.23483 0.5 5.50004V15.5C0.5 16.2957 0.816071 17.0588 1.37868 17.6214C1.94129 18.184 2.70435 18.5 3.5 18.5H16.5C17.5609 18.5 18.5783 18.0786 19.3284 17.3285C20.0786 16.5783 20.5 15.5609 20.5 14.5V1.50004C20.5 1.23483 20.3946 0.980471 20.2071 0.792935C20.0196 0.605399 19.7652 0.500042 19.5 0.500042ZM4.5 15.5C4.5 15.7653 4.39464 16.0196 4.20711 16.2071C4.01957 16.3947 3.76522 16.5 3.5 16.5C3.23478 16.5 2.98043 16.3947 2.79289 16.2071C2.60536 16.0196 2.5 15.7653 2.5 15.5V6.50004H4.5V15.5ZM18.5 14.5C18.5 15.0305 18.2893 15.5392 17.9142 15.9143C17.5391 16.2893 17.0304 16.5 16.5 16.5H6.32C6.43642 16.1794 6.4973 15.8412 6.5 15.5V2.50004H18.5V14.5ZM9.5 10.5H10.5C10.7652 10.5 11.0196 10.3947 11.2071 10.2071C11.3946 10.0196 11.5 9.76526 11.5 9.50004C11.5 9.23483 11.3946 8.98047 11.2071 8.79294C11.0196 8.6054 10.7652 8.50004 10.5 8.50004H9.5C9.23478 8.50004 8.98043 8.6054 8.79289 8.79294C8.60536 8.98047 8.5 9.23483 8.5 9.50004C8.5 9.76526 8.60536 10.0196 8.79289 10.2071C8.98043 10.3947 9.23478 10.5 9.5 10.5ZM9.5 14.5H10.5C10.7652 14.5 11.0196 14.3947 11.2071 14.2071C11.3946 14.0196 11.5 13.7653 11.5 13.5C11.5 13.2348 11.3946 12.9805 11.2071 12.7929C11.0196 12.6054 10.7652 12.5 10.5 12.5H9.5C9.23478 12.5 8.98043 12.6054 8.79289 12.7929C8.60536 12.9805 8.5 13.2348 8.5 13.5C8.5 13.7653 8.60536 14.0196 8.79289 14.2071C8.98043 14.3947 9.23478 14.5 9.5 14.5Z" fill="white"/>
</svg>
