<svg width="37" height="37" viewBox="0 0 37 37" fill="none" xmlns="http://www.w3.org/2000/svg">
<path d="M31.5658 12.0321C31.5817 12.3175 31.5817 12.6028 31.5817 12.8723C31.5776 14.6278 31.3214 16.3735 30.8207 18.0561C29.7656 21.9335 27.4491 25.349 24.2368 27.7633C21.0245 30.1775 17.0995 31.453 13.0816 31.3882C9.54464 31.3922 6.08193 30.3737 3.11035 28.4554C3.62573 28.5192 4.14458 28.5509 4.66389 28.5505C7.59064 28.5533 10.4331 27.5705 12.733 25.7604C11.3783 25.735 10.0654 25.2876 8.97703 24.4806C7.8887 23.6736 7.07922 22.5472 6.6614 21.2584C7.06473 21.3274 7.4729 21.3646 7.88209 21.3694C8.46635 21.3715 9.04801 21.2915 9.60996 21.1315C8.21872 20.8561 6.95642 20.1314 6.01704 19.0688C5.07765 18.0063 4.51315 16.6647 4.41028 15.2502C4.38393 15.0878 4.3733 14.9232 4.37854 14.7588V14.6795C5.282 15.1824 6.2935 15.4597 7.3271 15.488C6.43747 14.895 5.70844 14.091 5.20503 13.1478C4.70163 12.2046 4.43949 11.1514 4.44201 10.0823C4.44088 8.93106 4.74149 7.79964 5.31389 6.8008C6.94653 8.81245 8.98455 10.4577 11.2952 11.6294C13.6059 12.8012 16.1375 13.4731 18.7251 13.6015C18.3977 12.2066 18.5401 10.7426 19.1302 9.43692C19.7203 8.13124 20.7251 7.05699 21.9885 6.38103C23.2518 5.70507 24.7031 5.46525 26.1167 5.69881C27.5304 5.93238 28.8274 6.62626 29.8062 7.67267C31.2658 7.3846 32.6653 6.84841 33.9437 6.0874C33.9987 7.19107 33.8147 8.29359 33.4043 9.31959C32.9939 10.3456 32.3668 11.2709 31.5658 12.0321Z" fill="white"/>
</svg>
